<svg width="1024" height="1024" viewBox="0 0 1024 1024" fill="none" xmlns="http://www.w3.org/2000/svg">
<rect width="1024" height="1024.01" rx="500" fill="white"/>
<path d="M482 0.0100021C505.33 0.0100021 528.67 0.0100021 552 0.0100021C553.07 0.340002 554.12 0.819999 555.21 0.959999C577.13 3.77 599.31 5.28 620.95 9.53C711.98 27.4 791.93 67.93 860.55 130.29C904.7 170.41 940.7 216.99 968.1 270.14C998.46 329.03 1016.67 391.36 1022.13 457.41C1022.48 461.63 1023.36 465.81 1024 470.01C1024 472.01 1024 474.01 1024 476.01C1024 478.01 1024 480.01 1024 482.01C1024 505.68 1024 529.34 1024 553.01C1023.66 554.24 1023.17 555.46 1023.01 556.71C1020.13 578.46 1018.29 600.39 1014.25 621.92C1004.61 673.38 986.28 721.84 960.78 767.56C930.59 821.69 891.41 868.42 843.98 908.22C808.3 938.16 769.03 962.45 726.42 981.3C675.59 1003.77 622.53 1017.55 567.1 1022.12C562.71 1022.48 558.36 1023.37 554 1024.01C552 1024.01 550 1024.01 548 1024.01C546 1024.01 544 1024.01 542 1024.01C518.33 1024.01 494.67 1024.01 471 1024.01C469.77 1023.67 468.55 1023.18 467.3 1023.02C445.55 1020.14 423.62 1018.29 402.09 1014.26C350.63 1004.62 302.17 986.29 256.45 960.79C202.32 930.6 155.56 891.44 115.8 843.98C78.22 799.12 49.53 749.05 29.64 694.01C14.81 652.95 5.42 610.67 1.89 567.11C1.56 563.05 0.65 559.04 0 555.01C0 553.34 0 551.68 0 550.01C0 548.34 0 546.68 0 545.01C0 520.34 0 495.68 0 471.01C0.34 469.61 0.819995 468.23 1.00999 466.8C3.88999 445.22 5.75999 423.46 9.75999 402.09C19.39 350.62 37.73 302.17 63.22 256.46C93.41 202.33 132.59 155.6 180.02 115.81C215.7 85.87 254.97 61.58 297.58 42.72C348.41 20.23 401.48 6.48 456.9 1.89C461.29 1.53 465.64 0.64 470 0C472 0 474 0 476 0C478 0 480 0.0100021 482 0.0100021ZM580.89 491.05C581.01 490.77 581.14 490.49 581.26 490.21C580.19 489.81 579.11 489.41 578.04 489.01C577.37 489.4 576.7 489.8 576.04 490.19C573.37 489.12 570.7 488.04 568.03 486.97C565.71 484.62 563.39 482.27 561.06 479.91C554.59 472.37 550.75 464.22 553.83 453.9C555.73 447.54 554.73 446.55 547.99 446.05C547.27 445.44 546.63 444.47 545.81 444.28C515.43 437.12 485.7 456.27 481.16 487.07C478.77 498.96 479.41 510.6 484.02 521.92C485.69 525.23 487.37 528.54 489.04 531.85C492.75 540.82 499.79 546.53 507.97 551.12C514 557.5 521.91 560.72 529.83 563.74C534.42 565.49 539.29 566.5 544.04 567.85C556.82 571.36 569.52 575.19 582.4 578.3C597.64 581.99 612.45 586.2 623.01 598.95C626.96 605.41 627.3 612.12 624.9 619.26C622 627.89 615.37 633.32 608.88 638.95C600.98 642.64 593.4 647.49 585.12 649.76C572.65 653.17 559.69 654.77 546.94 657.14C537.98 657.06 529.03 656.98 520.07 656.9C514.71 655.65 509.35 654.4 504 653.15C500.68 652.43 497.36 651.71 494.04 650.99C493.16 650.31 492.36 649.44 491.37 648.98C484.24 645.66 477.08 642.42 469.92 639.15C466.29 636.73 462.66 634.31 459.03 631.89C456.37 629.89 453.71 627.89 451.06 625.9C448.73 623.58 446.39 621.25 444.06 618.93C438.71 612.61 433.37 606.28 428.02 599.96C426.28 597.02 424.55 594.07 422.81 591.13C422.52 590.75 422.23 590.38 421.95 590C420.62 587.69 419.28 585.38 417.95 583.07C415.83 577.51 413.31 572.07 411.68 566.37C409.68 559.36 408.42 552.14 406.84 545.01C406.23 539.99 405.38 534.99 405.07 529.96C404.67 523.57 404.71 517.16 404.57 510.76C405.09 506.19 405.62 501.62 406.14 497.05C406.4 495.34 406.58 493.61 406.93 491.93C408.26 485.63 409.66 479.35 411.03 473.06C412.03 470.39 413.03 467.72 414.03 465.05C415.37 461.39 416.7 457.72 418.04 454.06C419.03 452.31 420.01 450.56 421 448.8C422.31 447.66 423.91 446.73 424.88 445.35C427.72 441.31 430.32 437.1 433.01 432.96C433.33 432.9 433.82 432.95 433.96 432.75C441.54 421.8 451.86 413.82 462.43 406.01C471.8 399.09 481.92 393.81 493.06 390.56C500.52 388.38 508.04 386.17 515.69 384.91C523.19 383.67 530.98 382.58 538.47 383.27C550.1 384.34 561.74 386.33 573.08 389.11C587.56 392.66 601.63 397.64 612.97 408.08C616.65 411.34 620.34 414.6 624.02 417.85C624.66 418.28 625.31 418.7 625.95 419.13C628.65 422.73 631.34 426.33 634.04 429.93C643.35 439.67 654.67 444 668.11 442.51C670.13 442.28 672.11 441.65 674.11 441.2C676.08 440.74 678.04 440.29 680.01 439.83C685.21 436.13 691.11 433.1 695.37 428.53C698.65 425.01 699.86 419.56 701.99 414.96C702.62 412.7 703.33 410.46 703.87 408.18C706.21 398.45 703 389.7 698.99 381.1C697.67 379.4 696.35 377.7 695.03 376.01C694.35 374.19 694.1 372.01 692.92 370.61C688.13 364.94 683.06 359.51 678.09 353.99C676.25 352.35 674.57 350.47 672.53 349.12C670.55 347.8 668.21 347 666.03 345.97C661.03 341.95 656.04 337.94 651.04 333.92C645.35 330.68 639.66 327.43 633.97 324.19C633 323.79 632.03 323.39 631.06 322.99C623.72 319.63 616.39 316.28 609.05 312.92C607.38 312.25 605.7 311.58 604.02 310.91C589.36 307.58 574.7 304.25 560.04 300.92C556.32 300.62 552.58 299.94 548.87 300.07C532.79 300.63 516.63 300.64 500.67 302.4C490.61 303.51 480.86 307.37 470.97 310C468.99 310.38 467.01 310.77 465.03 311.15C459.45 313.39 453.83 315.54 448.31 317.92C444.78 319.44 441.39 321.3 437.94 323C437.62 323.33 437.29 323.66 436.97 323.99C433.99 325.4 431.01 326.8 428.02 328.21C422.99 331.14 417.96 334.06 412.94 336.99C408.3 340.34 403.66 343.68 399.02 347.03C394.33 351 389.64 354.96 384.95 358.93C378.8 365.35 372.3 371.48 366.59 378.27C361.65 384.15 357.6 390.78 353.15 397.08C350.85 400.25 348.19 403.22 346.35 406.63C344.25 410.54 342.88 414.84 341.19 418.97C341.08 419.31 340.98 419.65 340.87 419.98C338.23 424.64 335.59 429.3 332.96 433.96C329.69 443 326.43 452.03 323.16 461.07C322.71 463.31 322.27 465.55 321.82 467.78C320.89 471.28 319.75 474.74 319.05 478.29C315.37 496.92 315.3 515.76 316.03 534.63C316.12 537.09 316.76 539.53 317.14 541.98C317.72 546.05 318.3 550.12 318.88 554.19C319.3 556.74 319.56 559.32 320.17 561.82C321.98 569.28 323.92 576.71 325.82 584.16C326.84 586.14 327.86 588.13 328.88 590.11C329.27 592.49 329.14 595.11 330.13 597.2C336.62 610.88 343.16 624.55 350.12 638C352.38 642.37 355.94 646.06 358.91 650.07C362.6 655.05 366.28 660.03 369.97 665.01C371.61 666.7 373.25 668.4 374.88 670.09C376 670.95 377.59 671.57 378.16 672.71C382.13 680.56 389.07 685.26 395.97 690.03C400.34 693.42 404.7 696.81 409.07 700.2C411.69 701.84 414.3 703.48 416.92 705.12C424.47 709.74 431.75 714.88 439.64 718.83C447.46 722.74 455.9 725.44 464.06 728.67C468.25 730.16 472.37 731.88 476.65 733.05C480.34 734.06 484.21 734.42 488 735.07C494.25 736.46 500.45 738.65 506.77 739.08C521.88 740.09 537.05 740.93 552.17 740.53C561.36 740.28 570.44 736.98 579.66 736.15C594.73 734.79 608.02 727.89 621.88 723.04C632.69 719.26 642.84 713.11 652.57 706.91C662.21 700.77 671.68 693.97 679.91 686.09C687.22 679.08 692.73 670.18 699.03 662.11C701.25 658.41 703.46 654.71 705.68 651.02C710.35 643.69 713.17 635.72 714.06 627.07C714.37 626.33 714.91 625.6 714.94 624.85C715.33 615.35 716 605.84 715.86 596.35C715.78 590.95 714.37 585.58 713.56 580.19C713.18 578.68 713.06 577.03 712.37 575.68C711.14 573.27 709.57 571.03 708.14 568.71C708.05 568.16 707.96 567.6 707.88 567.05C706.59 563.92 705.63 560.59 703.91 557.72C702.41 555.2 700.06 553.19 698.08 550.95C697.67 549.97 697.27 549 696.86 548.02C696.57 547.65 696.29 547.29 696 546.92C695.68 546.61 695.36 546.31 695.05 546C694.04 544.01 693.03 542.03 692.01 540.04C686.69 535.67 681.36 531.29 676.04 526.92C674.03 525.27 672.03 523.63 670.02 521.98C669.7 521.66 669.37 521.34 669.05 521.02C662.37 517.4 655.68 513.78 649 510.16C643.31 508.17 637.63 506.18 631.94 504.19C631.3 504.12 630.66 504.04 630.03 503.97C628.03 503.08 626.03 502.19 624.03 501.3C621 500.61 617.96 499.92 614.93 499.22C614.28 499.08 613.64 498.93 612.99 498.79C604.01 496.91 595.03 495.04 586.06 493.17C584.42 492.78 582.77 492.39 581.13 492C581.05 491.67 580.98 491.36 580.89 491.05Z" fill="url(#paint0_linear_1275_797)"/>
<path d="M482 0.0100021C505.33 0.0100021 528.67 0.0100021 552 0.0100021C553.07 0.340002 554.12 0.819999 555.21 0.959999C577.13 3.77 599.31 5.28 620.95 9.53C711.98 27.4 791.93 67.93 860.55 130.29C904.7 170.41 940.7 216.99 968.1 270.14C998.46 329.03 1016.67 391.36 1022.13 457.41C1022.48 461.63 1023.36 465.81 1024 470.01C1024 472.01 1024 474.01 1024 476.01C1024 478.01 1024 480.01 1024 482.01C1024 505.68 1024 529.34 1024 553.01C1023.66 554.24 1023.17 555.46 1023.01 556.71C1020.13 578.46 1018.29 600.39 1014.25 621.92C1004.61 673.38 986.28 721.84 960.78 767.56C930.59 821.69 891.41 868.42 843.98 908.22C808.3 938.16 769.03 962.45 726.42 981.3C675.59 1003.77 622.53 1017.55 567.1 1022.12C562.71 1022.48 558.36 1023.37 554 1024.01C552 1024.01 550 1024.01 548 1024.01C546 1024.01 544 1024.01 542 1024.01C518.33 1024.01 494.67 1024.01 471 1024.01C469.77 1023.67 468.55 1023.18 467.3 1023.02C445.55 1020.14 423.62 1018.29 402.09 1014.26C350.63 1004.62 302.17 986.29 256.45 960.79C202.32 930.6 155.56 891.44 115.8 843.98C78.22 799.12 49.53 749.05 29.64 694.01C14.81 652.95 5.42 610.67 1.89 567.11C1.56 563.05 0.65 559.04 0 555.01C0 553.34 0 551.68 0 550.01C0 548.34 0 546.68 0 545.01C0 520.34 0 495.68 0 471.01C0.34 469.61 0.819995 468.23 1.00999 466.8C3.88999 445.22 5.75999 423.46 9.75999 402.09C19.39 350.62 37.73 302.17 63.22 256.46C93.41 202.33 132.59 155.6 180.02 115.81C215.7 85.87 254.97 61.58 297.58 42.72C348.41 20.23 401.48 6.48 456.9 1.89C461.29 1.53 465.64 0.64 470 0C472 0 474 0 476 0C478 0 480 0.0100021 482 0.0100021ZM580.89 491.05C581.01 490.77 581.14 490.49 581.26 490.21C580.19 489.81 579.11 489.41 578.04 489.01C577.37 489.4 576.7 489.8 576.04 490.19C573.37 489.12 570.7 488.04 568.03 486.97C565.71 484.62 563.39 482.27 561.06 479.91C554.59 472.37 550.75 464.22 553.83 453.9C555.73 447.54 554.73 446.55 547.99 446.05C547.27 445.44 546.63 444.47 545.81 444.28C515.43 437.12 485.7 456.27 481.16 487.07C478.77 498.96 479.41 510.6 484.02 521.92C485.69 525.23 487.37 528.54 489.04 531.85C492.75 540.82 499.79 546.53 507.97 551.12C514 557.5 521.91 560.72 529.83 563.74C534.42 565.49 539.29 566.5 544.04 567.85C556.82 571.36 569.52 575.19 582.4 578.3C597.64 581.99 612.45 586.2 623.01 598.95C626.96 605.41 627.3 612.12 624.9 619.26C622 627.89 615.37 633.32 608.88 638.95C600.98 642.64 593.4 647.49 585.12 649.76C572.65 653.17 559.69 654.77 546.94 657.14C537.98 657.06 529.03 656.98 520.07 656.9C514.71 655.65 509.35 654.4 504 653.15C500.68 652.43 497.36 651.71 494.04 650.99C493.16 650.31 492.36 649.44 491.37 648.98C484.24 645.66 477.08 642.42 469.92 639.15C466.29 636.73 462.66 634.31 459.03 631.89C456.37 629.89 453.71 627.89 451.06 625.9C448.73 623.58 446.39 621.25 444.06 618.93C438.71 612.61 433.37 606.28 428.02 599.96C426.28 597.02 424.55 594.07 422.81 591.13C422.52 590.75 422.23 590.38 421.95 590C420.62 587.69 419.28 585.38 417.95 583.07C415.83 577.51 413.31 572.07 411.68 566.37C409.68 559.36 408.42 552.14 406.84 545.01C406.23 539.99 405.38 534.99 405.07 529.96C404.67 523.57 404.71 517.16 404.57 510.76C405.09 506.19 405.62 501.62 406.14 497.05C406.4 495.34 406.58 493.61 406.93 491.93C408.26 485.63 409.66 479.35 411.03 473.06C412.03 470.39 413.03 467.72 414.03 465.05C415.37 461.39 416.7 457.72 418.04 454.06C419.03 452.31 420.01 450.56 421 448.8C422.31 447.66 423.91 446.73 424.88 445.35C427.72 441.31 430.32 437.1 433.01 432.96C433.33 432.9 433.82 432.95 433.96 432.75C441.54 421.8 451.86 413.82 462.43 406.01C471.8 399.09 481.92 393.81 493.06 390.56C500.52 388.38 508.04 386.17 515.69 384.91C523.19 383.67 530.98 382.58 538.47 383.27C550.1 384.34 561.74 386.33 573.08 389.11C587.56 392.66 601.63 397.64 612.97 408.08C616.65 411.34 620.34 414.6 624.02 417.85C624.66 418.28 625.31 418.7 625.95 419.13C628.65 422.73 631.34 426.33 634.04 429.93C643.35 439.67 654.67 444 668.11 442.51C670.13 442.28 672.11 441.65 674.11 441.2C676.08 440.74 678.04 440.29 680.01 439.83C685.21 436.13 691.11 433.1 695.37 428.53C698.65 425.01 699.86 419.56 701.99 414.96C702.62 412.7 703.33 410.46 703.87 408.18C706.21 398.45 703 389.7 698.99 381.1C697.67 379.4 696.35 377.7 695.03 376.01C694.35 374.19 694.1 372.01 692.92 370.61C688.13 364.94 683.06 359.51 678.09 353.99C676.25 352.35 674.57 350.47 672.53 349.12C670.55 347.8 668.21 347 666.03 345.97C661.03 341.95 656.04 337.94 651.04 333.92C645.35 330.68 639.66 327.43 633.97 324.19C633 323.79 632.03 323.39 631.06 322.99C623.72 319.63 616.39 316.28 609.05 312.92C607.38 312.25 605.7 311.58 604.02 310.91C589.36 307.58 574.7 304.25 560.04 300.92C556.32 300.62 552.58 299.94 548.87 300.07C532.79 300.63 516.63 300.64 500.67 302.4C490.61 303.51 480.86 307.37 470.97 310C468.99 310.38 467.01 310.77 465.03 311.15C459.45 313.39 453.83 315.54 448.31 317.92C444.78 319.44 441.39 321.3 437.94 323C437.62 323.33 437.29 323.66 436.97 323.99C433.99 325.4 431.01 326.8 428.02 328.21C422.99 331.14 417.96 334.06 412.94 336.99C408.3 340.34 403.66 343.68 399.02 347.03C394.33 351 389.64 354.96 384.95 358.93C378.8 365.35 372.3 371.48 366.59 378.27C361.65 384.15 357.6 390.78 353.15 397.08C350.85 400.25 348.19 403.22 346.35 406.63C344.25 410.54 342.88 414.84 341.19 418.97C341.08 419.31 340.98 419.65 340.87 419.98C338.23 424.64 335.59 429.3 332.96 433.96C329.69 443 326.43 452.03 323.16 461.07C322.71 463.31 322.27 465.55 321.82 467.78C320.89 471.28 319.75 474.74 319.05 478.29C315.37 496.92 315.3 515.76 316.03 534.63C316.12 537.09 316.76 539.53 317.14 541.98C317.72 546.05 318.3 550.12 318.88 554.19C319.3 556.74 319.56 559.32 320.17 561.82C321.98 569.28 323.92 576.71 325.82 584.16C326.84 586.14 327.86 588.13 328.88 590.11C329.27 592.49 329.14 595.11 330.13 597.2C336.62 610.88 343.16 624.55 350.12 638C352.38 642.37 355.94 646.06 358.91 650.07C362.6 655.05 366.28 660.03 369.97 665.01C371.61 666.7 373.25 668.4 374.88 670.09C376 670.95 377.59 671.57 378.16 672.71C382.13 680.56 389.07 685.26 395.97 690.03C400.34 693.42 404.7 696.81 409.07 700.2C411.69 701.84 414.3 703.48 416.92 705.12C424.47 709.74 431.75 714.88 439.64 718.83C447.46 722.74 455.9 725.44 464.06 728.67C468.25 730.16 472.37 731.88 476.65 733.05C480.34 734.06 484.21 734.42 488 735.07C494.25 736.46 500.45 738.65 506.77 739.08C521.88 740.09 537.05 740.93 552.17 740.53C561.36 740.28 570.44 736.98 579.66 736.15C594.73 734.79 608.02 727.89 621.88 723.04C632.69 719.26 642.84 713.11 652.57 706.91C662.21 700.77 671.68 693.97 679.91 686.09C687.22 679.08 692.73 670.18 699.03 662.11C701.25 658.41 703.46 654.71 705.68 651.02C710.35 643.69 713.17 635.72 714.06 627.07C714.37 626.33 714.91 625.6 714.94 624.85C715.33 615.35 716 605.84 715.86 596.35C715.78 590.95 714.37 585.58 713.56 580.19C713.18 578.68 713.06 577.03 712.37 575.68C711.14 573.27 709.57 571.03 708.14 568.71C708.05 568.16 707.96 567.6 707.88 567.05C706.59 563.92 705.63 560.59 703.91 557.72C702.41 555.2 700.06 553.19 698.08 550.95C697.67 549.97 697.27 549 696.86 548.02C696.57 547.65 696.29 547.29 696 546.92C695.68 546.61 695.36 546.31 695.05 546C694.04 544.01 693.03 542.03 692.01 540.04C686.69 535.67 681.36 531.29 676.04 526.92C674.03 525.27 672.03 523.63 670.02 521.98C669.7 521.66 669.37 521.34 669.05 521.02C662.37 517.4 655.68 513.78 649 510.16C643.31 508.17 637.63 506.18 631.94 504.19C631.3 504.12 630.66 504.04 630.03 503.97C628.03 503.08 626.03 502.19 624.03 501.3C621 500.61 617.96 499.92 614.93 499.22C614.28 499.08 613.64 498.93 612.99 498.79C604.01 496.91 595.03 495.04 586.06 493.17C584.42 492.78 582.77 492.39 581.13 492C581.05 491.67 580.98 491.36 580.89 491.05Z" fill="url(#paint1_linear_1275_797)" fill-opacity="0.5"/>
<defs>
<linearGradient id="paint0_linear_1275_797" x1="404.5" y1="-9" x2="609.5" y2="1147.5" gradientUnits="userSpaceOnUse">
<stop stop-color="#E1C9FB"/>
<stop offset="1" stop-color="#F5D0EC"/>
</linearGradient>
<linearGradient id="paint1_linear_1275_797" x1="992.5" y1="335" x2="501" y2="679.5" gradientUnits="userSpaceOnUse">
<stop stop-color="#AEB6FD"/>
<stop offset="1" stop-color="#EFDAF1"/>
</linearGradient>
</defs>
</svg>
