<svg width="563" height="580" viewBox="0 0 563 580" fill="none" xmlns="http://www.w3.org/2000/svg">
<path d="M280 0H291L312 2L327 4L351 10L372 18L394 29L413 41L424 50L436 61L447 75L453 87L455 95V113L451 125L449 128H447L446 132L443 135H441L440 138L429 144L422 146H408L395 142L389 138V136L385 135L377 126L372 120V118L368 116L361 110L344 100L327 93L311 89L291 87L268 88L247 93L232 99L217 107L204 117L195 125H193L191 130L184 138L174 153L169 165L162 185L158 213V231L161 253L166 270L172 285L183 302L191 312L195 317L197 318V320L200 321V323L204 325L214 333L228 341L244 348L261 353L282 356H295L313 354L327 351L345 345L359 337L368 329L373 320L374 317V306L370 298L362 291L349 286L332 281L297 272L276 265L264 260L255 254V252L250 250L249 247L246 246L234 228L230 216L229 211V189L233 176L239 165L248 155H250L251 152L263 146L274 143H293L303 146L307 149L306 157V167L309 174L314 181L324 187L339 192L375 201L399 209L415 217L426 224L441 237L450 248L459 263L465 279L468 296V317L464 337L456 356L453 361H451L450 365L449 367H447L445 372L437 381L433 386H431V388L423 395L419 396L417 400L407 407L392 416L376 424L356 432L339 437L317 441L309 442H263L238 438L214 431L198 425L183 417L172 411L170 410V408L166 407L164 406V404L158 402L148 394L137 385L122 370L111 356L105 348L93 329L84 310L78 295L72 276L67 250L66 237V196L70 171L76 150L84 130L92 114L104 95L108 89H110L112 84L122 73L129 65L143 52L154 44H156L157 41L160 39H163L164 36L185 24L200 17L216 11L238 5L264 1L280 0Z" fill="white"/>
<path d="M280 0H291L312 2L327 4L351 10L372 18L394 29L413 41L424 50L436 61L447 75L453 87L455 95V113L451 125L449 128H447L446 132L443 135H441L440 138L429 144L422 146H408L395 142L389 138V136L385 135L377 126L372 120V118L368 116L361 110L344 100L327 93L311 89L291 87L268 88L247 93L232 99L217 107L204 117L195 125H193L191 130L184 138L174 153L169 165L162 185L158 213V231L161 253L166 270L172 285L183 302L191 312L195 317L197 318V320L200 321V323L204 325L214 333L228 341L244 348L261 353L282 356H295L313 354L327 351L345 345L359 337L368 329L373 320L374 317V306L370 298L362 291L349 286L332 281L297 272L276 265L264 260L255 254V252L250 250L249 247L246 246L234 228L230 216L229 211V189L233 176L239 165L248 155H250L251 152L263 146L274 143H293L303 146L307 149L306 157V167L309 174L314 181L324 187L339 192L375 201L399 209L415 217L426 224L441 237L450 248L459 263L465 279L468 296V317L464 337L456 356L453 361H451L450 365L449 367H447L445 372L437 381L433 386H431V388L423 395L419 396L417 400L407 407L392 416L376 424L356 432L339 437L317 441L309 442H263L238 438L214 431L198 425L183 417L172 411L170 410V408L166 407L164 406V404L158 402L148 394L137 385L122 370L111 356L105 348L93 329L84 310L78 295L72 276L67 250L66 237V196L70 171L76 150L84 130L92 114L104 95L108 89H110L112 84L122 73L129 65L143 52L154 44H156L157 41L160 39H163L164 36L185 24L200 17L216 11L238 5L264 1L280 0Z" fill="white"/>
<path d="M511 506H519L525 509L526 511V517L521 522L513 524V526L519 527L522 530L524 527L531 526V518L533 514L537 511H543L548 515L550 525L557 526L560 529V537L556 541L549 542L550 561L559 562L563 566V574L558 578L555 579H544L538 576L532 569L531 565V542L525 540L522 536L517 541L512 542V573L509 578L508 579H499L495 575L494 572V543L488 540L486 538V530L490 526L494 525L496 517L500 511L507 507L511 506Z" fill="white"/>
<path d="M32 506H43L53 509L62 515L63 517V523L58 528H56V530H51L45 526L36 525L27 528L24 529L22 533L20 539V549L25 557L31 561L39 562L46 559L52 556L57 558L62 562L63 569L56 575L51 578L42 580H32L19 576L9 567L5 562L0 549V539L4 526L10 518L17 511L26 507L32 506Z" fill="white"/>
<path d="M394 506H407L416 509L422 514V522L417 527H410L404 524H393L392 529L395 532L415 539L421 544L425 551V565L420 573H418V575L410 579L406 580H393L382 576L376 571L375 565L379 559L384 558L393 562L402 563L407 560L406 555L395 551L385 547L379 543V541H377L374 532L375 522L379 515L383 511H385V509L394 506Z" fill="white"/>
<path d="M244 525H255L262 528L270 534L275 544V555L271 559L243 560L248 563L257 562L260 560L267 561L272 566L271 572L265 577L260 579L249 580L238 577L230 571L225 563L224 560V545L227 538L232 531L244 525ZM247 542L242 545V546L258 547L256 543L254 542H247Z" fill="white"/>
<path d="M87 525H100L110 530L117 537L121 547V559L118 566L110 575L101 579H86L76 574V572H74L70 567L67 561L66 556V546L71 536L73 533H75V531L84 526L87 525ZM90 542L84 547L83 554L86 560L89 562H97L103 557L104 555V549L99 543L93 542H90Z" fill="white"/>
<path d="M450 525H462L469 527V529L475 531L481 539L484 547V557L482 564L477 572L469 577L465 579L456 580L446 578L439 574V572H437L432 565L430 560L429 551L432 539L436 533L447 526L450 525ZM454 542L449 545L447 548V556L451 561L453 562H460L465 559L467 556V549L465 545L460 542H454Z" fill="white"/>
<path d="M133 525H141L146 528L152 525H165L170 528V530H172V532H174L177 537L178 544V575L174 579H166L163 577L162 573L161 546L159 543H152L148 547L147 549L146 575L142 579H133L129 575V529L133 525Z" fill="white"/>
<path d="M344 511H351L356 516V525H362L367 529V538L364 541L356 542V562H366L370 566V574L365 578L363 579H352L344 575L341 573V570H339L338 561V542L333 541L329 537V529L334 525H338V518L342 512L344 511Z" fill="white"/>
<path d="M300 525H315L323 529L326 532V540L321 545L314 544L305 543L301 545L299 548V556L303 561L305 562L314 561L321 560L326 564L327 571L322 576L315 579H300L291 575L287 570L284 567L281 560V544L285 536L288 532H290V530L300 525Z" fill="white"/>
<path d="M209 506H217L223 509L224 511V518L220 522L213 524L219 527L221 531L220 538L214 542H210V568L209 576L205 579H197L193 575L192 542L186 540L185 538V530L189 526H193L194 517L201 509L209 506Z" fill="white"/>
</svg>
